<!-- created by svgstack.com | Attribution is required. --><svg width="200" height="201" viewBox="0 0 200 201" fill="none" xmlns="http://www.w3.org/2000/svg"><path d="M200 100.033C200 150.554 162.562 192.321 113.926 199.099C109.379 199.729 104.726 200.059 100.004 200.059C94.5521 200.059 89.1988 199.624 83.9856 198.783C36.3662 191.115 0 149.818 0 100.033C0 44.7877 44.7746 0 99.9965 0C155.218 0 200 44.7877 200 100.033Z" fill="#1877F2"/><path d="M113.926 80.3167V102.108H140.875L136.608 131.462H113.926V199.092C109.379 199.723 104.726 200.052 100.003 200.052C94.552 200.052 89.1986 199.617 83.9854 198.776V131.462H59.1317V102.108H83.9854V75.4454C83.9854 58.9041 97.3898 45.4888 113.933 45.4888V45.5028C113.982 45.5028 114.024 45.4888 114.073 45.4888H140.882V70.8755H123.365C118.158 70.8755 113.933 75.1019 113.933 80.3097L113.926 80.3167Z" fill="white"/></svg> 