<!-- created by svgstack.com | Attribution is required. --><svg width="201" height="201" viewBox="0 0 201 201" fill="none" xmlns="http://www.w3.org/2000/svg"><path d="M100.379 0H99.9237C44.8209 0 0.151367 44.6827 0.151367 99.8017V100.257C0.151367 155.376 44.8209 200.059 99.9237 200.059H100.379C155.482 200.059 200.151 155.376 200.151 100.257V99.8017C200.151 44.6827 155.482 0 100.379 0Z" fill="url(#paint0_linear_1_360)"/><path d="M131.098 40.7017H69.2121C52.1151 40.7017 38.2062 54.6146 38.2062 71.7166V128.35C38.2062 145.452 52.1151 159.365 69.2121 159.365H131.098C148.195 159.365 162.104 145.452 162.104 128.35V71.7166C162.104 54.6146 148.195 40.7017 131.098 40.7017ZM49.1441 71.7166C49.1441 60.6494 58.1481 51.6428 69.2121 51.6428H131.098C142.162 51.6428 151.166 60.6494 151.166 71.7166V128.35C151.166 139.417 142.162 148.424 131.098 148.424H69.2121C58.1481 148.424 49.1441 139.417 49.1441 128.35V71.7166Z" fill="white"/><path d="M100.155 128.875C116.054 128.875 128.996 115.936 128.996 100.026C128.996 84.1154 116.061 71.1768 100.155 71.1768C84.2492 71.1768 71.3143 84.1154 71.3143 100.026C71.3143 115.936 84.2492 128.875 100.155 128.875ZM100.155 82.1249C110.028 82.1249 118.058 90.1572 118.058 100.033C118.058 109.909 110.028 117.941 100.155 117.941C90.2822 117.941 82.2522 109.909 82.2522 100.033C82.2522 90.1572 90.2822 82.1249 100.155 82.1249Z" fill="white"/><path d="M131.665 75.8375C135.947 75.8375 139.436 72.3541 139.436 68.0645C139.436 63.775 135.954 60.2915 131.665 60.2915C127.377 60.2915 123.895 63.775 123.895 68.0645C123.895 72.3541 127.377 75.8375 131.665 75.8375Z" fill="white"/><defs><linearGradient id="paint0_linear_1_360" x1="29.3704" y1="170.831" x2="170.974" y2="29.2764" gradientUnits="userSpaceOnUse"><stop stop-color="#FAAD4F"/><stop offset="0.35" stop-color="#DD2A7B"/><stop offset="0.62" stop-color="#9537B0"/><stop offset="1" stop-color="#515BD4"/></linearGradient></defs></svg> 