<!-- created by svgstack.com | Attribution is required. --><svg width="201" height="201" viewBox="0 0 201 201" fill="none" xmlns="http://www.w3.org/2000/svg"><path d="M100.432 0.371582H99.9762C44.8735 0.371582 0.203857 45.0543 0.203857 100.173V100.629C0.203857 155.748 44.8735 200.43 99.9762 200.43H100.432C155.534 200.43 200.204 155.748 200.204 100.629V100.173C200.204 45.0543 155.534 0.371582 100.432 0.371582Z" fill="#007EBB"/><path d="M47.9003 66.8735C45.2657 64.4274 43.9555 61.3995 43.9555 57.7968C43.9555 54.1942 45.2727 51.0331 47.9003 48.58C50.535 46.1338 53.9264 44.9072 58.0815 44.9072C62.2366 44.9072 65.4949 46.1338 68.1225 48.58C70.7571 51.0261 72.0674 54.1031 72.0674 57.7968C72.0674 61.4906 70.7501 64.4274 68.1225 66.8735C65.4879 69.3197 62.1455 70.5463 58.0815 70.5463C54.0174 70.5463 50.535 69.3197 47.9003 66.8735ZM69.8532 80.9056V155.902H46.1626V80.9056H69.8532Z" fill="#FEFFFC"/><path d="M148.717 88.3142C153.881 93.9214 156.459 101.617 156.459 111.416V154.578H133.96V114.458C133.96 109.516 132.678 105.676 130.12 102.942C127.563 100.209 124.115 98.8347 119.799 98.8347C115.483 98.8347 112.035 100.201 109.478 102.942C106.92 105.676 105.638 109.516 105.638 114.458V154.578H83.0054V80.6953H105.638V90.494C107.929 87.2278 111.019 84.6484 114.901 82.749C118.783 80.8495 123.148 79.9033 128.004 79.9033C136.651 79.9033 143.559 82.7069 148.717 88.3142Z" fill="#FEFFFC"/></svg> 