<!-- created by svgstack.com | Attribution is required. --><svg width="201" height="201" viewBox="0 0 201 201" fill="none" xmlns="http://www.w3.org/2000/svg"><path d="M100.378 0.371582H100.833C155.901 0.371582 200.606 45.0892 200.606 100.173V100.629C200.606 155.713 155.901 200.43 100.833 200.43H100.378C45.3102 200.43 0.605713 155.713 0.605713 100.629V100.173C0.605713 45.0892 45.3102 0.371582 100.378 0.371582Z" fill="#FFFA00"/><path d="M131.895 82.0968C131.881 83.4355 131.741 84.7743 131.615 86.113C131.573 86.5546 131.559 87.0031 131.552 87.4447C131.538 88.2087 132.148 88.9026 132.911 88.8535C133.276 88.8325 133.647 88.7344 133.997 88.6152C135.168 88.2017 136.324 87.7601 137.487 87.3185C138.538 86.912 139.61 86.5475 140.696 86.2532C141.88 85.9307 143.064 85.6924 144.27 85.8887C146.722 86.2882 148.32 88.9306 147.423 91.2506C147.171 91.9025 146.785 92.4632 146.323 92.9818C145.685 93.6898 144.963 94.2925 144.179 94.8252C143.254 95.449 142.322 96.0588 141.39 96.6756C139.834 97.6989 138.279 98.7152 136.73 99.7526C136.086 100.18 135.462 100.636 134.852 101.105C134.516 101.365 134.201 101.666 133.913 101.981C133.367 102.591 133.065 103.369 133.115 104.182C133.164 105.044 133.311 105.885 133.549 106.713C134.285 109.292 135.413 111.689 136.779 113.981C140.444 120.1 145.636 124.88 151.816 128.784C153.512 129.856 155.327 130.725 157.113 131.644C157.366 131.777 157.611 131.91 157.856 132.057C158.101 132.204 158.319 132.401 158.48 132.639C158.732 132.996 158.767 133.375 158.55 133.767C158.368 134.104 158.101 134.363 157.814 134.601C157.492 134.868 157.141 135.092 156.777 135.295C154.689 136.48 152.447 137.363 150.127 137.98C149.006 138.281 147.885 138.597 146.771 138.926C146.084 139.129 145.44 139.431 144.802 139.76C143.73 140.314 143.121 141.204 142.896 142.361C142.77 143.005 142.693 143.664 142.574 144.309C142.28 145.942 141.691 146.538 140.094 146.818C139.533 146.916 138.958 146.972 138.391 147.007C136.961 147.085 135.532 147.127 134.103 147.204C134.06 147.204 134.018 147.204 133.983 147.204C128.273 147.54 122.751 149.37 117.853 152.327C117.594 152.482 117.335 152.643 117.069 152.797C115.086 153.996 113.068 155.138 110.902 155.979C108.485 156.918 105.991 157.479 103.405 157.71C101.226 157.907 99.0537 157.878 96.8885 157.633C93.6443 157.269 90.5682 156.322 87.6603 154.837C86.308 154.143 85.0047 153.372 83.7154 152.58C83.6453 152.538 83.5753 152.496 83.4982 152.447C78.3551 149.313 72.5043 147.414 66.4853 147.169C66.4432 147.169 66.4012 147.169 66.3592 147.169C65.0979 147.12 63.8437 147.071 62.5824 146.993C61.8467 146.951 61.1109 146.853 60.3892 146.657C59.4713 146.405 58.8056 145.599 58.6305 144.666C58.5324 144.155 58.4553 143.643 58.3642 143.131C58.3432 143.019 58.3431 142.9 58.3221 142.788C58.1119 141.288 57.3692 140.188 55.9608 139.55C55.0989 139.157 54.2161 138.842 53.3052 138.59C51.7356 138.155 50.152 137.77 48.6175 137.216C47.2651 136.732 45.9619 136.157 44.7076 135.471C44.3292 135.267 43.9648 135.036 43.6145 134.798C43.3763 134.637 43.1521 134.454 42.9559 134.251C42.3253 133.592 42.3883 132.73 43.103 132.169C43.5164 131.84 43.9999 131.623 44.4693 131.391C47.7416 129.786 50.8457 127.908 53.7326 125.679C58.0909 122.322 61.7836 118.348 64.5794 113.56C65.5744 111.843 66.4012 110.035 67.0808 108.17C67.5293 106.937 67.8937 105.703 67.9848 104.407C68.0478 103.453 67.7255 102.507 67.0738 101.813C66.6044 101.316 66.0578 100.916 65.5043 100.517C64.6774 99.9278 63.8437 99.346 63.0028 98.7923C61.195 97.6008 59.3802 96.4303 57.5724 95.2457C56.7806 94.7271 56.0168 94.1664 55.3301 93.5145C54.8326 93.0379 54.3842 92.5263 54.0268 91.9305C53.2841 90.6829 53.2281 89.4002 53.7816 88.0825C54.1109 87.2975 54.7276 86.6317 55.4984 86.2742C56.5985 85.7695 57.7476 85.7065 58.9038 85.8957C60.151 86.099 61.3491 86.4845 62.5333 86.912C63.7455 87.3466 64.9367 87.8232 66.1419 88.2788C66.7025 88.4891 67.27 88.6993 67.8656 88.7904C68.0058 88.8115 68.146 88.8535 68.2861 88.8465C68.9798 88.8255 69.5543 88.6012 69.5473 87.669C69.5473 87.2204 69.5333 86.7648 69.5123 86.3162C69.4072 84.0734 69.2741 81.8305 69.218 79.5876C69.0919 74.2467 69.1129 68.8848 70.5073 63.6981C71.3621 60.523 72.8406 57.5722 74.8376 54.9508C78.9787 49.5048 84.4441 46.0493 90.9816 44.206C94.5552 43.1967 98.2059 42.8672 101.906 42.9794C105.402 43.0845 108.884 43.6803 112.192 44.8298C116.116 46.2035 119.682 48.1941 122.716 51.0188C126.164 54.2289 128.819 57.9787 130.263 62.5206C130.914 64.5742 131.328 66.6769 131.58 68.8077C132.106 73.2164 131.958 77.6531 131.916 82.0828L131.895 82.0968Z" fill="white"/><path d="M100.532 160.767C99.2148 160.767 97.8835 160.69 96.5662 160.542C93.0207 160.143 89.5732 159.098 86.336 157.437C84.8925 156.694 83.4912 155.867 82.1949 155.075L81.9847 154.949C77.1358 151.991 71.7334 150.316 66.3731 150.099H66.247C65.1329 150.05 63.7945 149.994 62.4212 149.917C61.3911 149.854 60.4732 149.713 59.6254 149.482C57.6705 148.949 56.1569 147.274 55.7645 145.221C55.6875 144.835 55.6245 144.443 55.5614 144.057L55.4914 143.63C55.4703 143.503 55.4563 143.363 55.4423 143.23C55.3512 142.585 55.169 142.41 54.7696 142.228C54.0549 141.905 53.2981 141.632 52.5273 141.415C52.163 141.31 51.7986 141.211 51.4273 141.113C50.194 140.784 48.9188 140.433 47.6365 139.978C46.123 139.438 44.6656 138.786 43.3062 138.05C42.8578 137.805 42.4093 137.532 41.9679 137.23C41.5545 136.943 41.1761 136.635 40.8468 136.291C39.9639 135.373 39.5224 134.202 39.5995 132.99C39.6836 131.777 40.2792 130.677 41.2742 129.878C41.8908 129.387 42.5074 129.093 43.0049 128.847L43.173 128.763C46.3752 127.193 49.3182 125.378 51.9388 123.359C56.2481 120.037 59.5554 116.35 62.0429 112.082C62.8977 110.617 63.6685 108.956 64.3201 107.162C64.7756 105.914 64.9927 105.031 65.0488 104.211C65.0558 104.057 65.0138 103.909 64.9297 103.825C64.6424 103.524 64.229 103.215 63.7876 102.907C62.9047 102.276 62.1129 101.73 61.3701 101.246C60.263 100.517 59.1489 99.795 58.0418 99.0731L55.9467 97.7063C54.8817 97.0054 54.0339 96.3536 53.2912 95.6527C52.5414 94.9448 51.9528 94.2228 51.4903 93.4448C50.2711 91.4122 50.124 89.1693 51.0629 86.9545C51.6795 85.4896 52.8427 84.277 54.2511 83.6252C55.7856 82.9173 57.5093 82.714 59.3591 83.0224C60.9147 83.2817 62.3231 83.7513 63.5073 84.1789C64.3201 84.4733 65.1189 84.7817 65.9247 85.0901C66.1209 85.1672 66.3171 85.2443 66.5133 85.3144L66.4852 84.7536C66.4012 83.0995 66.317 81.3823 66.275 79.6791C66.1489 74.3102 66.149 68.5978 67.6625 62.9555C68.6014 59.451 70.227 56.1708 72.4903 53.199C76.8626 47.4515 82.8115 43.4844 90.1688 41.4098C93.8265 40.3794 97.6943 39.9449 101.976 40.071C105.906 40.1902 109.662 40.8701 113.138 42.0896C117.65 43.6667 121.532 45.9586 124.685 48.8954C128.784 52.7153 131.51 56.8927 133.023 61.6519C133.689 63.7546 134.159 65.9905 134.46 68.4787C134.943 72.5229 134.887 76.546 134.838 80.4431L134.817 82.1253C134.803 83.2046 134.719 84.249 134.628 85.2653C135.238 85.034 135.847 84.8027 136.429 84.5784C137.697 84.0948 138.839 83.7163 139.918 83.4219C141.299 83.0434 142.945 82.7 144.732 82.9944C146.799 83.3308 148.6 84.5854 149.665 86.4358C150.709 88.2511 150.884 90.3889 150.156 92.2954C149.798 93.2205 149.259 94.0827 148.502 94.9238C147.745 95.7648 146.869 96.5218 145.818 97.2367C145.096 97.7274 144.368 98.204 143.639 98.6876L141.467 100.117C140.43 100.797 139.386 101.484 138.356 102.171C137.802 102.543 137.221 102.956 136.639 103.412C136.457 103.552 136.268 103.727 136.085 103.93C136.043 103.979 136.029 104.007 136.029 104.014C136.064 104.631 136.17 105.255 136.359 105.9C136.982 108.066 137.935 110.217 139.288 112.474C142.49 117.815 147.093 122.343 153.372 126.303C154.591 127.074 155.894 127.733 157.275 128.441C157.667 128.637 158.059 128.84 158.445 129.044C158.746 129.198 159.04 129.366 159.328 129.534C159.937 129.892 160.456 130.368 160.869 130.957C161.759 132.226 161.85 133.796 161.121 135.156C160.68 135.969 160.084 136.515 159.678 136.852C159.145 137.293 158.62 137.609 158.221 137.833C155.985 139.102 153.519 140.097 150.877 140.798C149.889 141.057 148.845 141.352 147.605 141.723C147.107 141.87 146.589 142.123 146.148 142.354C145.958 142.452 145.846 142.529 145.769 142.922C145.706 143.237 145.664 143.552 145.615 143.875C145.566 144.197 145.517 144.513 145.461 144.828C144.949 147.667 143.408 149.216 140.591 149.699C139.953 149.811 139.267 149.889 138.552 149.924C137.844 149.966 137.137 149.994 136.422 150.022C135.7 150.05 134.978 150.078 134.264 150.12H134.187C129.079 150.428 123.963 152.054 119.36 154.837L118.575 155.307C116.578 156.512 114.392 157.767 111.953 158.713C109.361 159.722 106.572 160.367 103.664 160.633C102.627 160.725 101.576 160.774 100.525 160.774L100.532 160.767ZM61.4682 143.903C61.8466 143.987 62.2671 144.036 62.7576 144.064C64.0819 144.141 65.3781 144.197 66.4712 144.232H66.6044C72.9597 144.499 79.329 146.468 85.0257 149.938L85.2499 150.078C86.6233 150.919 87.7934 151.606 88.9986 152.223C91.6122 153.561 94.373 154.402 97.2178 154.718C99.2008 154.942 101.191 154.963 103.146 154.788C105.542 154.571 107.735 154.066 109.844 153.246C111.862 152.461 113.782 151.361 115.562 150.288L116.347 149.812C121.763 146.538 127.803 144.625 133.822 144.274H133.941C134.698 144.225 135.448 144.19 136.198 144.162C136.877 144.134 137.564 144.106 138.244 144.071C138.734 144.043 139.197 143.994 139.617 143.924C139.645 143.924 139.666 143.917 139.694 143.91C139.701 143.875 139.708 143.833 139.722 143.784C139.771 143.517 139.806 143.251 139.848 142.985C139.911 142.585 139.967 142.186 140.044 141.793C140.451 139.711 141.642 138.106 143.478 137.153C144.122 136.817 144.991 136.396 145.965 136.109C147.262 135.723 148.355 135.415 149.399 135.142C151.073 134.7 152.657 134.111 154.121 133.396C152.846 132.744 151.543 132.065 150.268 131.259C143.198 126.794 137.97 121.635 134.285 115.488C132.666 112.79 131.51 110.182 130.746 107.519C130.445 106.461 130.263 105.395 130.207 104.344C130.123 102.76 130.669 101.225 131.755 100.019C132.169 99.5567 132.617 99.1362 133.08 98.7857C133.766 98.253 134.453 97.7624 135.118 97.3138C136.163 96.6129 137.221 95.919 138.272 95.2322L140.444 93.8023C141.152 93.3397 141.852 92.8771 142.553 92.4005C143.205 91.9589 143.73 91.5103 144.165 91.0267C144.438 90.7183 144.613 90.459 144.711 90.1997C144.844 89.8492 144.711 89.5198 144.613 89.3586C144.431 89.0432 144.136 88.8259 143.821 88.7768C143.142 88.6647 142.294 88.8539 141.481 89.0782C140.591 89.3235 139.631 89.6389 138.545 90.0595C137.41 90.494 136.198 90.9566 134.978 91.3842C134.313 91.6155 133.703 91.7487 133.101 91.7837C131.951 91.8468 130.809 91.4332 129.968 90.6272C129.093 89.7861 128.609 88.6086 128.63 87.396C128.637 86.9825 128.651 86.4288 128.707 85.854L128.756 85.2933C128.861 84.1719 128.959 83.1135 128.973 82.0762L128.994 80.373C129.043 76.497 129.093 72.8313 128.658 69.1796C128.406 67.0628 128.013 65.1774 127.46 63.4322C126.262 59.6543 124.055 56.304 120.712 53.1849C118.12 50.7668 115.016 48.9515 111.218 47.6198C108.31 46.6035 105.143 46.0287 101.814 45.9306C98.1358 45.8114 94.8494 46.1829 91.7734 47.052C85.5792 48.7973 80.8005 51.9724 77.1639 56.7525C75.3631 59.1146 74.0738 61.7219 73.3311 64.4835C72.0208 69.3688 72.0208 74.6045 72.1399 79.5459C72.175 81.172 72.259 82.8472 72.3431 84.4663L72.4271 86.2045C72.4482 86.6951 72.4622 87.1858 72.4692 87.6764C72.4832 90.0665 70.8366 91.7206 68.3702 91.7977C67.9357 91.7977 67.6063 91.7416 67.4242 91.7066C66.5062 91.5664 65.7285 91.272 65.1049 91.0408C64.6845 90.8795 64.264 90.7183 63.8436 90.5571C63.0728 90.2627 62.3021 89.9684 61.5314 89.688C60.6064 89.3516 59.5063 88.9871 58.4202 88.8049C57.5023 88.6577 57.0049 88.8189 56.7106 88.9521C56.6405 88.9871 56.5283 89.0922 56.4652 89.2394C56.234 89.7861 56.3041 90.0805 56.5214 90.445C56.7105 90.7604 56.9768 91.0758 57.3272 91.4122C57.8107 91.8678 58.3922 92.3164 59.156 92.814L61.237 94.1738C62.3581 94.9027 63.4793 95.6317 64.5934 96.3676C65.3992 96.9003 66.247 97.482 67.193 98.1549C67.8446 98.6245 68.5453 99.1362 69.1899 99.8231C70.3881 101.099 71.0118 102.844 70.8927 104.624C70.7735 106.405 70.255 108.003 69.8206 109.194C69.0428 111.318 68.1319 113.287 67.1019 115.054C64.264 119.918 60.3681 124.278 55.5123 128.02C52.9408 130.004 50.0889 131.812 47.0269 133.396C47.8467 133.796 48.7086 134.16 49.6055 134.476C50.6705 134.854 51.7777 135.156 52.9548 135.471C53.3332 135.576 53.7186 135.674 54.097 135.779C55.148 136.074 56.185 136.445 57.173 136.894C59.4642 137.931 60.8727 139.831 61.23 142.389C61.244 142.48 61.2511 142.571 61.2581 142.655V142.641L61.3281 143.097C61.3702 143.37 61.4192 143.644 61.4682 143.91V143.903Z" fill="#1D1D1B"/></svg> 