<!-- created by svgstack.com | Attribution is required. --><svg width="201" height="201" viewBox="0 0 201 201" fill="none" xmlns="http://www.w3.org/2000/svg"><path d="M100.531 0H100.075C44.9725 0 0.302917 44.6827 0.302917 99.8017V100.257C0.302917 155.376 44.9725 200.059 100.075 200.059H100.531C155.633 200.059 200.303 155.376 200.303 100.257V99.8017C200.303 44.6827 155.633 0 100.531 0Z" fill="black"/><path d="M151.009 79.4542V98.3435C147.709 98.0211 143.42 97.2711 138.677 95.5329C132.482 93.262 127.872 90.157 124.852 87.7529V125.931L124.775 125.812C124.824 126.569 124.852 127.34 124.852 128.118C124.852 147.077 109.43 162.511 90.4687 162.511C71.5078 162.511 56.0854 147.077 56.0854 128.118C56.0854 109.158 71.5078 93.7176 90.4687 93.7176C92.3255 93.7176 94.1473 93.8647 95.9271 94.1521V112.768C94.2174 112.158 92.3816 111.829 90.4687 111.829C81.4927 111.829 74.1845 119.132 74.1845 128.118C74.1845 137.103 81.4927 144.407 90.4687 144.407C99.4446 144.407 106.753 137.096 106.753 128.118C106.753 127.781 106.746 127.445 106.725 127.109V52.918H125.595C125.665 54.516 125.728 56.1281 125.798 57.7262C125.924 60.8732 127.045 63.8941 129 66.3683C131.291 69.2771 134.676 72.6554 139.426 75.3539C143.876 77.8771 148.052 78.9565 151.009 79.4682V79.4542Z" fill="#FF004F"/><path d="M144.52 64.1186V83.0079C141.22 82.6855 136.932 81.9355 132.188 80.1973C125.994 77.9264 121.383 74.8214 118.363 72.4173V110.595L118.286 110.476C118.335 111.233 118.363 112.004 118.363 112.782C118.363 131.742 102.941 147.176 83.9802 147.176C65.0193 147.176 49.597 131.742 49.597 112.782C49.597 93.8229 65.0193 78.382 83.9802 78.382C85.837 78.382 87.6588 78.5292 89.4386 78.8165V97.4325C87.7289 96.8227 85.8931 96.4933 83.9802 96.4933C75.0043 96.4933 67.696 103.797 67.696 112.782C67.696 121.768 75.0043 129.071 83.9802 129.071C92.9561 129.071 100.264 121.761 100.264 112.782C100.264 112.446 100.257 112.109 100.236 111.773V37.5684H119.106C119.176 39.1664 119.239 40.7785 119.309 42.3766C119.435 45.5236 120.557 48.5445 122.512 51.0187C124.803 53.9274 128.187 57.3058 132.938 60.0043C137.387 62.5205 141.563 63.6069 144.52 64.1186Z" fill="#00F7EF"/><path d="M148.648 72.3756V91.2649C145.347 90.9425 141.059 90.1925 136.315 88.4543C130.121 86.1834 125.51 83.0784 122.49 80.6743V118.852L122.413 118.733C122.462 119.49 122.49 120.261 122.49 121.039C122.49 139.999 107.068 155.433 88.1073 155.433C69.1464 155.433 53.7241 139.999 53.7241 121.039C53.7241 102.08 69.1464 86.6389 88.1073 86.6389C89.9641 86.6389 91.786 86.7861 93.5657 87.0735V105.689C91.856 105.08 90.0202 104.75 88.1073 104.75C79.1313 104.75 71.8231 112.054 71.8231 121.039C71.8231 130.025 79.1313 137.328 88.1073 137.328C97.0832 137.328 104.391 130.018 104.391 121.039C104.391 120.703 104.384 120.366 104.363 120.03V45.8394H123.233C123.303 47.4374 123.366 49.0495 123.436 50.6476C123.563 53.7946 124.684 56.8155 126.639 59.2897C128.93 62.1984 132.314 65.5768 137.065 68.2753C141.514 70.7915 145.691 71.8779 148.648 72.3896V72.3756Z" fill="white"/></svg> 