<!-- created by svgstack.com | Attribution is required. --><svg width="201" height="201" viewBox="0 0 201 201" fill="none" xmlns="http://www.w3.org/2000/svg"><path d="M200.448 100.651C200.448 151.17 163.011 192.936 114.377 199.713C109.83 200.344 105.177 200.674 100.455 200.674C95.0035 200.674 89.6504 200.239 84.4373 199.398C36.8266 191.73 0.461731 150.435 0.461731 100.651C0.461731 45.4078 45.2347 0.621582 100.462 0.621582C155.689 0.621582 200.462 45.4078 200.462 100.651H200.448Z" fill="#1C1C1B"/><path d="M41.0167 44.7349L87.1349 106.412L40.7294 156.56H51.1765L91.8085 112.657L124.635 156.56H160.18L111.469 91.4134L154.666 44.7349H144.219L106.803 85.1686L76.5688 44.7349H41.0236H41.0167ZM56.3754 52.4305H72.7011L144.807 148.864H128.482L56.3754 52.4305Z" fill="white"/></svg> 