<!-- created by svgstack.com | Attribution is required. --><svg width="201" height="201" viewBox="0 0 201 201" fill="none" xmlns="http://www.w3.org/2000/svg"><path d="M200.053 100.333C200.053 45.088 155.282 0.303223 100.053 0.303223C44.8246 0.303223 0.0529785 45.088 0.0529785 100.333C0.0529785 155.577 44.8246 200.362 100.053 200.362C155.282 200.362 200.053 155.577 200.053 100.333Z" fill="#FF0209"/><path d="M142.503 144.637C139.523 144.96 136.474 145.016 133.55 145.009C110.748 144.988 87.9456 144.967 65.1503 144.953C57.9758 144.953 50.1619 144.721 44.6177 140.159C38.3708 135.007 37.0708 126.073 36.5649 117.99C35.8622 106.912 35.806 95.7994 36.3822 84.7147C36.6984 78.6276 37.2535 72.3928 39.8745 66.8821C41.7577 62.9248 44.8988 59.3681 48.9182 57.4984C53.5911 55.3265 58.4818 55.7131 63.5131 55.706C75.5572 55.692 87.6014 55.6849 99.6455 55.6709C112.167 55.6568 124.696 55.6498 137.218 55.6357C143.135 55.6357 149.487 55.7552 154.315 59.1784C160.548 63.5926 162.241 71.9922 163.021 79.5905C164.462 93.5852 164.483 107.728 163.078 121.722C162.494 127.493 161.524 133.594 157.723 137.973C153.956 142.317 148.37 143.99 142.51 144.63L142.503 144.637Z" fill="white"/><path d="M120.445 100.333L86.463 80.708V119.958L120.445 100.333Z" fill="#FF0209"/></svg> 